<svg xmlns="http://www.w3.org/2000/svg" viewBox="0 0 100 100" role="img" aria-label="??">
  <circle cx="50" cy="50" r="46" fill="#f2ede4" stroke="#3d3d3d" stroke-width="7"/>
  <path fill="#3d3d3d" d="M50 27c-7.5 0-13.5 3.8-16.5 9.5-3.2 6.2-2.5 14.2 1.8 20.2 2.2 3.1 5.2 5.6 8.8 7.1l-1.8 7.4c-.8 3.3 1.6 6.3 5 6.3h5.4c3.4 0 5.8-3 5-6.3l-1.8-7.4c3.6-1.5 6.6-4 8.8-7.1 4.3-6 5-14 1.8-20.2C63.5 30.8 57.5 27 50 27zm-17.2-1.8 2.2-11.2 6.8 8.8zm34.4 0-2.2-11.2-6.8 8.8z"/>
  <path fill="#3d3d3d" d="M34 34c-2.5-4.5-1-9.5 3.5-12.5 1.8-1.2 3.8-1.8 5.8-1.8-3.5 2.5-5.5 6.5-5.2 10.8.2 2.2 1.2 4.2 2.8 5.8-2.2-.8-4.8-.5-6.9 1.2-1.4 1.2-2.4 2.8-3 4.5zm32 0c2.5-4.5 1-9.5-3.5-12.5-1.8-1.2-3.8-1.8-5.8-1.8 3.5 2.5 5.5 6.5 5.2 10.8-.2 2.2-1.2 4.2-2.8 5.8 2.2-.8 4.8-.5 6.9 1.2 1.4 1.2 2.4 2.8 3 4.5z"/>
  <ellipse cx="40.5" cy="45.5" rx="5" ry="3.2" fill="#f2ede4" transform="rotate(-20 40.5 45.5)"/>
  <ellipse cx="59.5" cy="45.5" rx="5" ry="3.2" fill="#f2ede4" transform="rotate(20 59.5 45.5)"/>
  <path fill="#f2ede4" d="M50 55.5c-2.8 0-5 1.5-5 3.5s2.2 3.5 5 3.5 5-1.5 5-3.5-2.2-3.5-5-3.5z"/>
</svg>
